<svg xmlns="http://www.w3.org/2000/svg" width="18" height="17.74" viewBox="0 0 18 17.74"><g transform="translate(17 0.993) rotate(90)"><g transform="translate(-0.993 -1)"><g transform="translate(0 0)"><path d="M6.361,184.449l-2.09,2.121a2.194,2.194,0,0,1-3.136,0,2.273,2.273,0,0,1,0-3.181l4.182-4.243a2.194,2.194,0,0,1,3.135,0,.732.732,0,0,0,1.045,0,.758.758,0,0,0,0-1.061,3.658,3.658,0,0,0-5.226,0L.089,182.328a3.788,3.788,0,0,0,0,5.3,3.657,3.657,0,0,0,5.227,0l2.09-2.121a.758.758,0,0,0,0-1.061A.732.732,0,0,0,6.361,184.449Z" transform="translate(0.993 -170.729)" fill="#006ce0"/><path d="M199.978.1a3.659,3.659,0,0,0-5.227,0l-2.508,2.545a.758.758,0,0,0,0,1.061.732.732,0,0,0,1.045,0L195.8,1.158a2.2,2.2,0,0,1,3.136,0,2.273,2.273,0,0,1,0,3.181l-4.6,4.667a2.194,2.194,0,0,1-3.136,0,.732.732,0,0,0-1.045,0,.758.758,0,0,0,0,1.061,3.658,3.658,0,0,0,5.226,0l4.6-4.667A3.788,3.788,0,0,0,199.978.1Z" transform="translate(-183.32 1)" fill="#006ce0"/></g></g></g></svg>