<svg xmlns="http://www.w3.org/2000/svg" width="24.435" height="21.007" viewBox="0 0 24.435 21.007"><g transform="translate(0 -28.588)"><g transform="translate(0 28.588)"><g transform="translate(0 0)"><path d="M24.4,40.475h0L19.787,28.891a.48.48,0,0,0-.623-.268h0L.448,36.075a.47.47,0,0,0-.192.153A.474.474,0,0,0,0,36.644V49.116a.48.48,0,0,0,.48.48H20.626a.48.48,0,0,0,.48-.48V42.3L24.133,41.1A.48.48,0,0,0,24.4,40.475Zm-4.255,8.161H.959V37.124H20.146ZM8,36.167l8.032-3.2a3.816,3.816,0,0,0,2.75,1.186l.8,2.015Zm13.1,5.107v-4.63a.48.48,0,0,0-.48-.48h-.008L19.6,33.612a.4.4,0,0,0-.039-.06.474.474,0,0,0-.5-.369A2.868,2.868,0,0,1,16.546,32.1a.475.475,0,0,0-.615-.107.539.539,0,0,0-.068.012l-9.805,3.9a.474.474,0,0,0-.263.256H2.817l16.257-6.473,4.259,10.694Z" transform="translate(0 -28.588)" fill="#ff4013"/><path d="M32.342,194.26a2.868,2.868,0,0,1,1.936,1.934.48.48,0,0,0,.46.342.438.438,0,0,0,.074-.011.451.451,0,0,0,.066.013H46.39a.413.413,0,0,0,.059-.012.447.447,0,0,0,.54-.328v0a2.868,2.868,0,0,1,1.936-1.936.473.473,0,0,0,.329-.528.483.483,0,0,0,.014-.071v-3.837a.434.434,0,0,0-.014-.071.473.473,0,0,0-.329-.528,2.865,2.865,0,0,1-1.935-1.937.474.474,0,0,0-.531-.329.458.458,0,0,0-.068-.013H34.878a.454.454,0,0,0-.071.014.474.474,0,0,0-.528.329,2.868,2.868,0,0,1-1.936,1.936.473.473,0,0,0-.329.528.485.485,0,0,0-.013.071v3.837a.443.443,0,0,0,.013.067A.475.475,0,0,0,32.342,194.26Zm.617-4.242a3.806,3.806,0,0,0,2.113-2.113H46.195a3.807,3.807,0,0,0,2.114,2.113v3.448a3.811,3.811,0,0,0-2.113,2.113H35.073a3.811,3.811,0,0,0-2.113-2.113Z" transform="translate(-30.081 -177.45)" fill="#ff4013"/><path d="M130.878,224.7A2.878,2.878,0,1,0,128,221.823,2.878,2.878,0,0,0,130.878,224.7Zm0-4.8a1.919,1.919,0,1,1-1.919,1.919A1.919,1.919,0,0,1,130.878,219.9Z" transform="translate(-120.325 -207.531)" fill="#ff4013"/><path d="M76.72,256.384a.72.72,0,1,0-.72-.72A.72.72,0,0,0,76.72,256.384Zm0-.959a.24.24,0,1,1-.24.24A.24.24,0,0,1,76.72,255.425Z" transform="translate(-71.443 -241.373)" fill="#ff4013"/><path d="M252.72,256.384a.72.72,0,1,0-.72-.72A.72.72,0,0,0,252.72,256.384Zm0-.959a.24.24,0,1,1-.24.24A.24.24,0,0,1,252.72,255.425Z" transform="translate(-236.89 -241.373)" fill="#ff4013"/></g></g></g></svg>