<svg xmlns="http://www.w3.org/2000/svg" width="25" height="21.5" viewBox="0 0 25 21.5"><path d="M0-.5H24a.5.5,0,0,1,.5.5V18a.5.5,0,0,1-.5.5H0A.5.5,0,0,1-.5,18V0A.5.5,0,0,1,0-.5ZM23.5.5H.5v17h23Z" transform="translate(0.5 3)" fill="#ff4013"/><path d="M0,5.5A.5.5,0,0,1-.5,5V0A.5.5,0,0,1,0-.5.5.5,0,0,1,.5,0V5A.5.5,0,0,1,0,5.5Z" transform="translate(5.5 0.5)" fill="#ff4013"/><path d="M23,.5H0A.5.5,0,0,1-.5,0,.5.5,0,0,1,0-.5H23a.5.5,0,0,1,.5.5A.5.5,0,0,1,23,.5Z" transform="translate(1 8)" fill="#ff4013"/><path d="M0,5.5A.5.5,0,0,1-.5,5V0A.5.5,0,0,1,0-.5.5.5,0,0,1,.5,0V5A.5.5,0,0,1,0,5.5Z" transform="translate(12.5 0.5)" fill="#ff4013"/><path d="M0,5.5A.5.5,0,0,1-.5,5V0A.5.5,0,0,1,0-.5.5.5,0,0,1,.5,0V5A.5.5,0,0,1,0,5.5Z" transform="translate(19.5 0.5)" fill="#ff4013"/></svg>