<svg xmlns="http://www.w3.org/2000/svg" width="24.79" height="20.414" viewBox="0 0 24.79 20.414"><g transform="translate(-132.779 -87)"><path d="M157.069,144.691a.5.5,0,0,1-.456-.295,12.543,12.543,0,0,0-22.878,0,.5.5,0,1,1-.912-.411,13.543,13.543,0,0,1,24.7,0,.5.5,0,0,1-.456.705Z" transform="translate(0 -37.278)" fill="#ff4013"/><path d="M4.665-.5A5.165,5.165,0,1,1-.5,4.665,5.171,5.171,0,0,1,4.665-.5Zm0,9.33A4.165,4.165,0,1,0,.5,4.665,4.17,4.17,0,0,0,4.665,8.83Z" transform="translate(140.27 87.5)" fill="#ff4013"/></g></svg>