<svg xmlns="http://www.w3.org/2000/svg" width="26.256" height="19.521" viewBox="0 0 26.256 19.521"><g transform="translate(-214.015 -269.761)"><path d="M0-.5H25.256a.5.5,0,0,1,.5.5V18.521a.5.5,0,0,1-.5.5H0a.5.5,0,0,1-.5-.5V0A.5.5,0,0,1,0-.5ZM24.756.5H.5V18.021H24.756Z" transform="translate(214.515 270.261)" fill="#ff4013"/><path d="M25.256.5H0A.5.5,0,0,1-.5,0,.5.5,0,0,1,0-.5H25.256a.5.5,0,0,1,.5.5A.5.5,0,0,1,25.256.5Z" transform="translate(214.515 275.312)" fill="#ff4013"/><path d="M8.419.5H0A.5.5,0,0,1-.5,0,.5.5,0,0,1,0-.5H8.419a.5.5,0,0,1,.5.5A.5.5,0,0,1,8.419.5Z" transform="translate(227.985 279.522)" fill="#ff4013"/><path d="M8.419.5H0A.5.5,0,0,1-.5,0,.5.5,0,0,1,0-.5H8.419a.5.5,0,0,1,.5.5A.5.5,0,0,1,8.419.5Z" transform="translate(227.985 282.047)" fill="#ff4013"/><path d="M4.209.5H0A.5.5,0,0,1-.5,0,.5.5,0,0,1,0-.5H4.209a.5.5,0,0,1,.5.5A.5.5,0,0,1,4.209.5Z" transform="translate(227.985 284.573)" fill="#ff4013"/><path d="M1.052.5H0A.5.5,0,0,1-.5,0,.5.5,0,0,1,0-.5H1.052a.5.5,0,0,1,.5.5A.5.5,0,0,1,1.052.5Z" transform="translate(217.709 272.768)" fill="#ff4013"/><path d="M1.052.5H0A.5.5,0,0,1-.5,0,.5.5,0,0,1,0-.5H1.052a.5.5,0,0,1,.5.5A.5.5,0,0,1,1.052.5Z" transform="translate(220.706 272.768)" fill="#ff4013"/><path d="M1.052.5H0A.5.5,0,0,1-.5,0,.5.5,0,0,1,0-.5H1.052a.5.5,0,0,1,.5.5A.5.5,0,0,1,1.052.5Z" transform="translate(223.802 272.768)" fill="#ff4013"/><path d="M218.049,279.811a.5.5,0,0,1,.22.051l6.093,2.99a.5.5,0,0,1,0,.9l-6.093,2.99a.5.5,0,0,1-.72-.449v-5.98a.5.5,0,0,1,.5-.5Zm4.958,3.49-4.458-2.188v4.376Z" transform="translate(-0.34 -1.508)" fill="#ff4013"/></g></svg>