<?xml version="1.0" encoding="utf-8"?>
<!-- Generator: Adobe Illustrator 25.1.0, SVG Export Plug-In . SVG Version: 6.00 Build 0)  -->
<svg version="1.2" baseProfile="tiny" id="Layer_1" xmlns="http://www.w3.org/2000/svg" xmlns:xlink="http://www.w3.org/1999/xlink"
	 x="0px" y="0px" width="74px" height="74px" viewBox="0 0 74 74" overflow="visible" xml:space="preserve">
<ellipse id="Ellipse_1597" fill="none" stroke="#9575CD" stroke-width="2" cx="29" cy="15" rx="4.5" ry="4.5"/>
<path id="Path_6425" fill="none" stroke="#9575CD" stroke-width="2" stroke-linecap="round" stroke-linejoin="round" d="M18.9,28.9
	c3.4-5.6,10.6-7.5,16.2-4.1c1.5,0.9,2.8,2.1,3.8,3.5"/>
<line id="Line_911" fill="none" stroke="#013663" stroke-linecap="round" stroke-linejoin="round" x1="18" y1="35.5" x2="56.5" y2="35.5"/>
<line id="Line_912" fill="none" stroke="#013663" stroke-linecap="round" stroke-linejoin="round" x1="18" y1="40.5" x2="56.5" y2="40.5"/>
<line id="Line_913" fill="none" stroke="#013663" stroke-linecap="round" stroke-linejoin="round" x1="18" y1="50.5" x2="37.77" y2="50.5"/>
<line id="Line_914" fill="none" stroke="#013663" stroke-linecap="round" stroke-linejoin="round" x1="18" y1="45.5" x2="41.93" y2="45.5"/>
<line id="Line_915" fill="none" stroke="#013663" stroke-linecap="round" stroke-linejoin="round" x1="18" y1="55.5" x2="30.49" y2="55.5"/>
<line id="Line_916" fill="none" stroke="#013663" stroke-linecap="round" stroke-linejoin="round" x1="44.5" y1="13.5" x2="57" y2="13.5"/>
<line id="Line_917" fill="none" stroke="#013663" stroke-linecap="round" stroke-linejoin="round" x1="44.5" y1="17.5" x2="51.79" y2="17.5"/>
<path id="Path_6426" fill="none" stroke="#9575CD" stroke-width="3" stroke-linecap="round" stroke-linejoin="round" d="M43.3,64.6"
	/>
<path id="Path_6427" fill="none" stroke="#9575CD" stroke-width="2" stroke-linecap="round" stroke-linejoin="round" d="M43.8,64.9
	H13V5l49-0.1v60h-5.1"/>
<ellipse id="Ellipse_1598" fill="none" stroke="#9575CD" stroke-width="2" cx="49.8" cy="55.8" rx="7.8" ry="7.8"/>
<path id="Path_6428" fill="none" stroke="#9575CD" stroke-width="2" stroke-linecap="round" stroke-linejoin="round" d="M44,61v9
	l5.6-2l6.4,2.1V61"/>
</svg>
