<?xml version="1.0" encoding="utf-8"?>
<!-- Generator: Adobe Illustrator 25.1.0, SVG Export Plug-In . SVG Version: 6.00 Build 0)  -->
<svg version="1.2" baseProfile="tiny" id="Layer_1" xmlns="http://www.w3.org/2000/svg" xmlns:xlink="http://www.w3.org/1999/xlink"
	 x="0px" y="0px" width="74px" height="74px" viewBox="0 0 74 74" overflow="visible" xml:space="preserve">
<path id="Path_6537" fill="none" stroke="#9575CD" stroke-width="2" stroke-linecap="round" stroke-linejoin="round" d="M49,29V16.5
	L41,8H8v52h23"/>
<path id="Path_6538" fill="none" stroke="#9575CD" stroke-width="2" stroke-linejoin="round" d="M41,9v8h8"/>
<path id="Path_6539" fill="none" stroke="#9575CD" stroke-width="2" stroke-linecap="round" stroke-linejoin="round" d="M66,45v21
	H35V45"/>
<rect id="Rectangle_6847" x="35" y="34" fill="none" stroke="#9575CD" stroke-width="2" stroke-linejoin="round" width="31" height="7"/>
<line id="Line_1021" fill="none" stroke="#013663" stroke-linecap="round" x1="49.5" y1="51.5" x2="51.5" y2="51.5"/>
<line id="Line_1016" fill="none" stroke="#013663" stroke-linecap="round" x1="49.5" y1="47.5" x2="51.5" y2="47.5"/>
<line id="Line_1017" fill="none" stroke="#013663" stroke-linecap="round" x1="54.5" y1="47.5" x2="56.5" y2="47.5"/>
<line id="Line_1018" fill="none" stroke="#013663" stroke-linecap="round" x1="59.5" y1="47.5" x2="61.5" y2="47.5"/>
<line id="Line_1019" fill="none" stroke="#013663" stroke-linecap="round" x1="39.5" y1="51.5" x2="41.5" y2="51.5"/>
<line id="Line_1020" fill="none" stroke="#013663" stroke-linecap="round" x1="44.5" y1="51.5" x2="46.5" y2="51.5"/>
<line id="Line_1022" fill="none" stroke="#013663" stroke-linecap="round" x1="54.5" y1="51.5" x2="56.5" y2="51.5"/>
<line id="Line_1023" fill="none" stroke="#013663" stroke-linecap="round" x1="59.5" y1="51.5" x2="61.5" y2="51.5"/>
<line id="Line_1024" fill="none" stroke="#013663" stroke-linecap="round" x1="39.5" y1="55.5" x2="41.5" y2="55.5"/>
<line id="Line_1025" fill="none" stroke="#013663" stroke-linecap="round" x1="44.5" y1="55.5" x2="46.5" y2="55.5"/>
<line id="Line_1026" fill="none" stroke="#013663" stroke-linecap="round" x1="49.5" y1="55.5" x2="51.5" y2="55.5"/>
<line id="Line_1027" fill="none" stroke="#013663" stroke-linecap="round" x1="54.5" y1="55.5" x2="56.5" y2="55.5"/>
<line id="Line_1028" fill="none" stroke="#013663" stroke-linecap="round" x1="59.5" y1="55.5" x2="61.5" y2="55.5"/>
<line id="Line_1029" fill="none" stroke="#013663" stroke-linecap="round" x1="39.5" y1="59.5" x2="41.5" y2="59.5"/>
<line id="Line_1030" fill="none" stroke="#013663" stroke-linecap="round" x1="44.5" y1="59.5" x2="46.5" y2="59.5"/>
<line id="Line_1031" fill="none" stroke="#013663" stroke-linecap="round" x1="49.5" y1="59.5" x2="51.5" y2="59.5"/>
<line id="Line_1032" fill="none" stroke="#9575CD" stroke-width="2" stroke-linecap="round" x1="40" y1="37" x2="40" y2="31"/>
<line id="Line_1033" fill="none" stroke="#9575CD" stroke-width="2" stroke-linecap="round" x1="61" y1="37" x2="61" y2="31"/>
<line id="Line_1034" fill="none" stroke="#013663" stroke-linecap="round" x1="20.5" y1="16.5" x2="34.5" y2="16.5"/>
<line id="Line_1035" fill="none" stroke="#013663" stroke-linecap="round" x1="20.5" y1="21.5" x2="34.5" y2="21.5"/>
<line id="Line_1036" fill="none" stroke="#013663" stroke-linecap="round" x1="20.5" y1="26.5" x2="34.5" y2="26.5"/>
<line id="Line_1037" fill="none" stroke="#013663" stroke-linecap="round" x1="13.5" y1="16.5" x2="16.5" y2="16.5"/>
<line id="Line_1038" fill="none" stroke="#013663" stroke-linecap="round" x1="13.5" y1="21.5" x2="16.5" y2="21.5"/>
<line id="Line_1039" fill="none" stroke="#013663" stroke-linecap="round" x1="13.5" y1="26.5" x2="16.5" y2="26.5"/>
</svg>
