<?xml version="1.0" encoding="utf-8"?>
<!-- Generator: Adobe Illustrator 25.1.0, SVG Export Plug-In . SVG Version: 6.00 Build 0)  -->
<svg version="1.2" baseProfile="tiny" id="Layer_1" xmlns="http://www.w3.org/2000/svg" xmlns:xlink="http://www.w3.org/1999/xlink"
	 x="0px" y="0px" width="74px" height="74px" viewBox="0 0 74 74" overflow="visible" xml:space="preserve">
<path id="Path_6372" fill="none" stroke="#013663" stroke-linecap="round" stroke-linejoin="round" d="M22.5,27.5v5h-12v-12h6"/>
<path id="Path_6373" fill="none" stroke="#013663" stroke-linecap="round" stroke-linejoin="round" d="M14,25l2.5,2.5l7-8"/>
<line id="Line_39" fill="none" stroke="#013663" stroke-linecap="round" stroke-linejoin="round" x1="29.5" y1="24.5" x2="45.5" y2="24.5"/>
<line id="Line_40" fill="none" stroke="#013663" stroke-linecap="round" stroke-linejoin="round" x1="29.5" y1="29.5" x2="41.5" y2="29.5"/>
<line id="Line_41" fill="none" stroke="#013663" stroke-linecap="round" stroke-linejoin="round" x1="29.5" y1="42.5" x2="37.5" y2="42.5"/>
<line id="Line_42" fill="none" stroke="#013663" stroke-linecap="round" stroke-linejoin="round" x1="29.5" y1="47.5" x2="36.5" y2="47.5"/>
<path id="Path_6376" fill="none" stroke="#9575CD" stroke-width="2" stroke-linecap="round" stroke-linejoin="round" d="M42.2,57H4
	V6h65v34"/>
<line id="Line_43" fill="none" stroke="#9575CD" stroke-linecap="round" x1="19.5" y1="10.5" x2="22.5" y2="10.5"/>
<line id="Line_44" fill="none" stroke="#9575CD" stroke-linecap="round" x1="14.5" y1="10.5" x2="17.5" y2="10.5"/>
<line id="Line_45" fill="none" stroke="#9575CD" stroke-linecap="round" x1="9.5" y1="10.5" x2="12.5" y2="10.5"/>
<line id="Line_46" fill="none" stroke="#9575CD" x1="4" y1="14.5" x2="68" y2="14.5"/>
<g id="Group_7111" transform="translate(36.422 19.892)">
	<path id="Path_6377" fill="none" stroke="#9575CD" stroke-width="2" stroke-linecap="round" stroke-linejoin="round" d="
		M30.58,42.11c0,0,3-3.31,3-4.81V26.48c0-1.54-1.13-2.26-2.78-2.78l-11.22-2.88l0-10.74c0-1.54-0.97-2.98-2.45-3.39
		c-2.42-0.67-4.55,1.06-4.55,3.36l-0.1,17.15l-3.2-3.3c-1.1-1.1-3-1.1-4.1,0s-0.9,2.7,0,4.1l8.4,14.11"/>
	<path id="Path_6378" fill="none" stroke="#9575CD" stroke-width="2" stroke-linecap="round" stroke-linejoin="round" d="
		M10.58,48.11v-6l22,0.1v5.9"/>
</g>
<rect x="10.5" y="39.5" fill="none" stroke="#013663" stroke-linecap="round" stroke-linejoin="round" width="12" height="12"/>
</svg>
