<?xml version="1.0" encoding="utf-8"?>
<!-- Generator: Adobe Illustrator 25.1.0, SVG Export Plug-In . SVG Version: 6.00 Build 0)  -->
<svg version="1.2" baseProfile="tiny" id="Group_8451"
	 xmlns="http://www.w3.org/2000/svg" xmlns:xlink="http://www.w3.org/1999/xlink" x="0px" y="0px" width="74px" height="74px"
	 viewBox="0 0 74 74" overflow="visible" xml:space="preserve">
<g id="Rectangle_6752">
	<path fill="none" d="M2,6h70c1.1,0,2,0.9,2,2v57c0,1.1-0.9,2-2,2H2c-1.1,0-2-0.9-2-2V8C0,6.9,0.9,6,2,6z"/>
	<path fill="none" stroke="#9575CD" stroke-width="2" d="M2,7h70c0.6,0,1,0.4,1,1v57c0,0.6-0.4,1-1,1H2c-0.6,0-1-0.4-1-1V8
		C1,7.4,1.4,7,2,7z"/>
</g>
<g id="Rectangle_6753" transform="translate(17 21)">
	<rect y="6" fill="none" width="40" height="5"/>
	<rect x="0.5" y="6.5" fill="none" stroke="#013663" stroke-linecap="round" stroke-linejoin="round" width="39" height="4"/>
</g>
<g id="Rectangle_6754" transform="translate(17 29)">
	<rect y="6" fill="none" width="40" height="5"/>
	<rect x="0.5" y="6.5" fill="none" stroke="#013663" stroke-linecap="round" stroke-linejoin="round" width="39" height="4"/>
</g>
<g id="Rectangle_6755" transform="translate(17 37)">
	<rect y="6" fill="none" width="40" height="8"/>
	<rect x="0.5" y="6.5" fill="none" stroke="#013663" stroke-linecap="round" stroke-linejoin="round" width="39" height="7"/>
</g>
<g id="Rectangle_6756" transform="translate(25 48)">
	<rect y="6" fill="none" width="25" height="5"/>
	<rect x="0.5" y="6.5" fill="none" stroke="#013663" stroke-linecap="round" stroke-linejoin="round" width="24" height="4"/>
</g>
<line id="Line_884" fill="none" stroke="#013663" stroke-linecap="round" x1="27" y1="23.5" x2="47" y2="23.5"/>
<path id="Path_7657" fill="none" stroke="#9575CD" stroke-width="2" d="M2,16h70"/>
</svg>
