<?xml version="1.0" encoding="utf-8"?>
<!-- Generator: Adobe Illustrator 24.3.0, SVG Export Plug-In . SVG Version: 6.00 Build 0)  -->
<svg version="1.2" baseProfile="tiny" id="Layer_1" xmlns="http://www.w3.org/2000/svg" xmlns:xlink="http://www.w3.org/1999/xlink"
	 x="0px" y="0px" viewBox="0 0 1336 1336" overflow="visible" xml:space="preserve">
<path fill="#002369" d="M668,1336c-133.1,0.2-263.2-39.5-373.5-114.1C187.1,1149.4,103,1047.3,52.5,928
	c-88-208-64.8-446.4,61.6-633.5C186.6,187.1,288.7,103,408,52.5c208-88,446.3-64.8,633.5,61.6c107.4,72.5,191.5,174.6,242,293.9
	c88,208,64.9,446.4-61.6,633.5c-72.5,107.4-174.6,191.5-293.9,242C845.8,1318.3,757.3,1336.2,668,1336z M671.1,194.4
	c-259.4,0-470.4,211-470.4,470.4c0,259.4,211,470.4,470.4,470.4s470.4-211,470.4-470.4C1141.5,405.4,930.5,194.4,671.1,194.4z"/>
<path fill="#002060" d="M333.6,1246.5c-13.3-7.7-26.4-15.9-39.2-24.5c-107.4-72.5-191.4-174.5-242-293.8
	c-88-207.9-64.9-446.3,61.6-633.3c48-71.1,109.3-132.4,180.4-180.4c17.7-12,36-23.1,54.9-33.4c48-12,97.4-18.1,146.9-18
	c203.9,0,384.2,101.3,493.3,256.3C905.7,242,793.7,194.7,671,194.7c-259.3,0-470.3,211-470.3,470.3s211,470.3,470.3,470.3
	c124.4,0,237.6-48.5,321.8-127.7c-108.7,157.7-290.6,261-496.6,261C441.3,1268.7,386.6,1261.2,333.6,1246.5z"/>
</svg>
