<?xml version="1.0" encoding="utf-8"?>
<!-- Generator: Adobe Illustrator 21.0.0, SVG Export Plug-In . SVG Version: 6.00 Build 0)  -->
<svg version="1.1" id="Capa_1" xmlns="http://www.w3.org/2000/svg" xmlns:xlink="http://www.w3.org/1999/xlink" x="0px" y="0px"
	 viewBox="0 0 676.8 785.5" style="enable-background:new 0 0 676.8 785.5;" xml:space="preserve">
<style type="text/css">
	.st0{fill:#FFFFFF;}
</style>
<g>
	<g>
		<ellipse class="st0" cx="283.2" cy="197.4" rx="67.5" ry="67.4"/>
		<path class="st0" d="M170.6,301.5V522c0,9,7.3,16.3,16.4,16.3c9,0,16.4-7.3,16.4-16.3V317.9H228v451.3c0,9,7.3,16.3,16.4,16.3
			c9,0,16.4-7.3,16.4-16.3V511.8h57.3v257.3c0,9,7.3,16.3,16.4,16.3c9,0,16.4-7.3,16.4-16.3V317.9h96.2c4.9,0,9.5-2.2,12.6-5.9
			l67.5-81.7c5.8-7,4.8-17.3-2.2-23s-17.3-4.8-23,2.2l-62.6,75.7H187C177.9,285.2,170.6,292.5,170.6,301.5z"/>
		<path class="st0" d="M676.8,495.5V16.3c0-9-7.3-16.3-16.4-16.3h-644C7.4,0,0,7.3,0,16.3v479.2c0,9,7.3,16.3,16.4,16.3h98.3
			c9,0,16.4-7.3,16.4-16.3s-7.3-16.3-16.4-16.3H32.8V32.7H644v446.5H409.4c-9,0-16.4,7.3-16.4,16.3s7.3,16.3,16.4,16.3h251.1
			C669.5,511.8,676.8,504.5,676.8,495.5z"/>
	</g>
</g>
</svg>
