<svg xmlns="http://www.w3.org/2000/svg" width="236.234" height="34"><rect id="backgroundrect" width="100%" height="100%" x="0" y="0" fill="none" stroke="none"/>
  
<g class="currentLayer" style=""><title>Layer 1</title><g id="logo_academy" class="" fill="#ffffff" fill-opacity="1">
    <path id="Subtraction_662" data-name="Subtraction 662" d="M10.605999999999995,27.8049995727539 A10.558,10.558 0 0 1 4.675999999999988,25.997999572753912 A10.635,10.635 0 0 1 0.8340000000000032,21.3289995727539 A10.587,10.587 0 0 1 1.811000000000007,11.272999572753903 A10.638,10.638 0 0 1 6.478000000000009,7.430999572753905 a10.594,10.594 0 0 1 10.058,0.978 A10.662,10.662 0 0 1 19.400000000000006,11.272999572753903 c0.035,0.05100000000000002 0.07,0.1 0.1,0.15600000000000006 H16.139999999999986 a8,8 0 1 0 0.3000000000000001,11.411 H19.590000000000003 c-0.06200000000000002,0.1 -0.126,0.2 -0.18900000000000006,0.2890000000000001 a10.636,10.636 0 0 1 -4.666,3.842 A10.544,10.544 0 0 1 10.605999999999995,27.8049995727539 z" fill="#ffffff" fill-opacity="1"/>
    <path id="Subtraction_666" data-name="Subtraction 666" d="M102.59001489257813,44.31700030517578 A8.217,8.217 0 0 1 97.97401489257811,42.905000305175776 A8.28,8.28 0 0 1 94.98301489257813,39.274000305175775 A8.245,8.245 0 0 1 95.74401489257812,31.445000305175782 A8.28,8.28 0 0 1 99.37601489257813,28.454000305175782 a8.245,8.245 0 0 1 7.829,0.7610000000000002 a8.28,8.28 0 0 1 2.991,3.632 a8.245,8.245 0 0 1 -0.7610000000000002,7.829 a8.28,8.28 0 0 1 -3.632,2.991 A8.2,8.2 0 0 1 102.59001489257813,44.31700030517578 zM102.60801489257813,30.323000305175782 a5.757,5.757 0 1 0 5.757,5.757 A5.763,5.763 0 0 0 102.60801489257813,30.323000305175782 z" transform="rotate(180 94.33401489257812,27.80500030517578) " fill="#ffffff" fill-opacity="1"/>
    <path id="Path_6028" data-name="Path 6028" d="M44.5620040283203,19.651993347167974 c0,-4.989 -3.3360000000000003,-8.356 -8.019,-8.356 a7.944,7.944 0 0 0 -8.141,8.264 c0,4.836 3.489,8.294 8.723,8.294 a8.142,8.142 0 0 0 6.4,-2.632 l-1.622,-1.9 a6.057,6.057 0 0 1 -4.683,1.959 c-3.214,0 -5.509,-1.9 -5.877,-4.744 H44.501004028320324 C44.5320040283203,20.26399334716797 44.5620040283203,19.895993347167973 44.5620040283203,19.651993347167974 zM36.5430040283203,13.775993347167969 a5.059,5.059 0 0 1 5.2,4.652 H31.340004028320323 A5.056,5.056 0 0 1 36.5430040283203,13.775993347167969 z" fill="#ffffff" stroke="rgba(0,0,0,0)" stroke-width="1" fill-opacity="1"/>
    <path id="Path_6027" data-name="Path 6027" d="M22.918003906249993,14.175993347167974 v-2.724 H20.10200390624999 v16.222 h2.938 v-8.08 c0,-3.55 1.959,-5.479 5.111,-5.479 a5.189,5.189 0 0 1 0.6730000000000004,0.031000000000000014 v-2.846 C25.97900390625,11.29599334716795 23.954003906249994,12.275993347167969 22.918003906249993,14.175993347167974 z" fill="#ffffff" fill-opacity="1"/>
    <path id="Path_6030" data-name="Path 6030" d="M71.7900146484375,24.60898699951173 a2.648,2.648 0 0 1 -1.8930000000000002,0.7650000000000002 c-1.622,0 -2.138,-0.979 -2.138,-2.723 v-8.782 H72.41001464843751 v-2.417 H67.7580146484375 v-4.757 H64.8190146484375 v4.757 H63.810014648437516 v2.417 h1.009 v8.9 c0,3.274 1.464,5.079 4.739,5.079 a4.471,4.471 0 0 0 3.148,-1.1320000000000001 z" fill="#ffffff" fill-opacity="1"/>
    <path id="Path_6031" data-name="Path 6031" d="M73.78599438476562,27.670993835449224 h2.938 V11.448993835449215 H73.78599438476562 z" fill="#ffffff" fill-opacity="1"/>
    <g id="Group_5722" data-name="Group 5722" fill="#ffffff" fill-opacity="1">
      <path id="Subtraction_664" data-name="Subtraction 664" d="M70.24401231384277,44.31699839782715 A8.217,8.217 0 0 1 65.62801231384276,42.90499839782714 A8.28,8.28 0 0 1 62.637012313842774,39.27399839782714 A8.245,8.245 0 0 1 63.39801231384277,31.44499839782715 A8.28,8.28 0 0 1 67.03001231384278,28.45399839782715 a8.245,8.245 0 0 1 7.829,0.7610000000000003 a8.28,8.28 0 0 1 2.991,3.632 a8.245,8.245 0 0 1 -0.7610000000000003,7.829 a8.28,8.28 0 0 1 -3.632,2.991 A8.2,8.2 0 0 1 70.24401231384277,44.31699839782715 zM70.26201231384277,30.32299839782715 a5.757,5.757 0 1 0 5.757,5.757 A5.763,5.763 0 0 0 70.26201231384277,30.32299839782715 z" transform="rotate(180 61.988014221191406,27.80499839782715) " fill="#ffffff" fill-opacity="1"/>
      <path id="Path_6029" data-name="Path 6029" d="M59.56101307678222,27.671001464843755 h2.536 V11.449001464843747 H59.56101307678222 z" fill="#ffffff" fill-opacity="1"/>
    </g>
    <g id="Group_5728" data-name="Group 5728" fill="#ffffff" fill-opacity="1">
      <path id="Path_6147" data-name="Path 6147" d="M117.6429938966632,27.92200323486327 h3.191 L111.16899389666318,6.6460032348632865 H108.1599938966632 L98.52499389666318,27.92200323486327 H101.65599389666318 l2.34,-5.319 H115.3029938966632 zM105.0599938966632,20.171003234863292 l4.59,-10.425 l4.59,10.425 zm24.285,7.933 a7.207,7.207 0 0 0 6.565,-3.465 l-2.219,-1.4 a5.022,5.022 0 0 1 -4.377,2.31 a5.338,5.338 0 0 1 -5.532,-5.684 A5.346,5.346 0 0 1 129.31699389666318,14.214003234863299 a5.022,5.022 0 0 1 4.377,2.31 l2.219,-1.429 a7.184,7.184 0 0 0 -6.565,-3.435 c-4.954,0 -8.511,3.4 -8.511,8.207 S124.39099389666319,28.104003234863285 129.3449938966632,28.104003234863285 zM168.03799389666318,5.369003234863271 v8.875 A6.855,6.855 0 0 0 162.4169938966632,11.661003234863273 a7.819,7.819 0 0 0 -8.146,8.207 A7.843,7.843 0 0 0 162.4169938966632,28.104003234863285 a6.806,6.806 0 0 0 5.745,-2.736 v2.553 h2.8 V5.369003234863271 zm-5.38,20.182 A5.334,5.334 0 0 1 157.21699389666318,19.86700323486329 a5.309,5.309 0 0 1 5.441,-5.6530000000000005 a5.3,5.3 0 0 1 5.41,5.6530000000000005 A5.327,5.327 0 0 1 162.65799389666319,25.551003234863288 zm26.3,-5.593 c0,-4.954 -3.313,-8.3 -7.963,-8.3 A7.889,7.889 0 0 0 172.9169938966632,19.86700323486329 c0,4.8 3.465,8.237 8.663,8.237 a8.086,8.086 0 0 0 6.353,-2.614 L186.31699389666318,23.606003234863294 a6.015,6.015 0 0 1 -4.65,1.945 c-3.191,0 -5.471,-1.8840000000000003 -5.836,-4.711 h13.07 C188.93099389666318,20.566003234863274 188.96099389666318,20.202003234863298 188.96099389666318,19.95800323486327 zM180.9979938966632,14.12300323486329 a5.024,5.024 0 0 1 5.167,4.62 H175.8309938966632 A5.021,5.021 0 0 1 180.9979938966632,14.12300323486329 zm30.4,-2.462 a7.26,7.26 0 0 0 -6.2,2.979 a5.962,5.962 0 0 0 -5.593,-2.979 a6.529,6.529 0 0 0 -5.562,2.553 v-2.4 h-2.8 v16.109 H194.1669938966632 v-8.3 c0,-3.5 1.915,-5.349 4.833,-5.349 c2.644,0 4.164,1.55 4.164,4.711 v8.936 h2.918 v-8.3 c0,-3.5 1.915,-5.349 4.833,-5.349 c2.644,0 4.164,1.55 4.164,4.711 v8.936 h2.918 v-9.27 C217.9959938966632,13.910003234863268 215.31699389666318,11.661003234863273 211.40099389666318,11.661003234863273 zm21.975,0.15200000000000008 L227.81699389666318,24.70000323486329 L222.1909938966632,11.813003234863288 h-3.039 l7.112,16.079 l-0.517,1.125 c-0.79,1.854 -1.6720000000000006,2.492 -3.07,2.492 a4.122,4.122 0 0 1 -2.888,-1.185 l-1.246,2.188 a6.048,6.048 0 0 0 4.134,1.489 c2.462,0 4.316,-1.064 5.745,-4.468 l7.811,-17.72 z" fill="#ffffff" fill-opacity="1"/>
      <g id="Group_5723" data-name="Group 5723" fill="#ffffff" fill-opacity="1">
        <path id="Subtraction_664-2" data-name="Subtraction 664" d="M161.39799256896973,44.31600228500366 A8.217,8.217 0 0 1 156.7819925689697,42.904002285003656 A8.28,8.28 0 0 1 153.79099256896973,39.273002285003656 A8.245,8.245 0 0 1 154.55199256896972,31.444002285003663 A8.28,8.28 0 0 1 158.18399256896973,28.453002285003663 a8.245,8.245 0 0 1 7.829,0.7610000000000005 a8.28,8.28 0 0 1 2.991,3.632 a8.245,8.245 0 0 1 -0.7610000000000005,7.829 a8.28,8.28 0 0 1 -3.632,2.991 A8.2,8.2 0 0 1 161.39799256896973,44.31600228500366 zM161.41599256896973,30.322002285003663 a5.757,5.757 0 1 0 5.757,5.757 A5.763,5.763 0 0 0 161.41599256896973,30.322002285003663 z" transform="rotate(180 153.14198303222656,27.804002761840824) " fill="#ffffff" fill-opacity="1"/>
        <path id="Path_6029-2" data-name="Path 6029" d="M150.71499333190917,27.67000535202027 h2.536 V11.44800535202026 H150.71499333190917 z" fill="#ffffff" fill-opacity="1"/>
      </g>
    </g>
    <path id="Path_5977" data-name="Path 5977" d="M81.88800012207031,6.574994079589828 l-11.37,2.6390000000000002 l3.3850000000000002,-2.6390000000000002 l-13.872,-6.575 z" fill="#ffffff" fill-opacity="1"/>
    <path id="Path_5977-2" data-name="Path 5977" d="M81.88800012207031,6.574994079589828 h-7.985 l-13.872,-6.575 z" fill="#ffffff" fill-opacity="1"/>
  </g></g></svg>