<svg xmlns="http://www.w3.org/2000/svg" width="11.045" height="12.931" viewBox="0 0 11.045 12.931">
  <path id="Path_4" data-name="Path 4" d="M10,6.09a.642.642,0,0,1,.479.254,1.264,1.264,0,0,1,.244.684.613.613,0,0,1,.3.039,1.184,1.184,0,0,1,.4.215.4.4,0,0,1,.117.293.667.667,0,0,1-.137.479,32.958,32.958,0,0,0-4.072,4.541,36.972,36.972,0,0,0,2.529,3.135.491.491,0,0,1,.146.361.8.8,0,0,1-.254.635.825.825,0,0,1-.488.166,2.064,2.064,0,0,1-.137.439q-.205.5-.479.5a.879.879,0,0,1-.566-.205.6.6,0,0,1-.186.244.924.924,0,0,1-.537.234.619.619,0,0,1-.42-.234,17.566,17.566,0,0,1-1.8-2.451A34.1,34.1,0,0,0,2.432,18.8a.4.4,0,0,1-.322.215q-.166.02-.322-.3a1.672,1.672,0,0,1-.146-.381.594.594,0,0,1-.322.107.675.675,0,0,1-.459-.254q-.313-.3-.312-.449a1.243,1.243,0,0,1,.264-.615.3.3,0,0,1-.156-.137.675.675,0,0,1-.156-.41A.787.787,0,0,1,.7,16.139,40.355,40.355,0,0,1,3.5,12.818,19.945,19.945,0,0,1,1.6,8.922a2.571,2.571,0,0,1-.186-.762,1.7,1.7,0,0,1,.2-.635q.137-.273.322-.273a1.2,1.2,0,0,1,.635.332,1.11,1.11,0,0,1,.107-.332q.2-.43.332-.43a.5.5,0,0,1,.488.225,21,21,0,0,0,2.188,3.262,43.8,43.8,0,0,1,4.1-4.121A.3.3,0,0,1,10,6.09Z" transform="translate(-0.498 -6.09)" fill="#c23030"/>
</svg>
