<svg xmlns="http://www.w3.org/2000/svg" width="10.596" height="9.521" viewBox="0 0 10.596 9.521">
  <path id="Path_1" data-name="Path 1" d="M2.568-6.387q.332,0,.508.547Q3.408-4.8,3.555-4.8q.117,0,.234-.176A20.665,20.665,0,0,1,8.232-10a2.88,2.88,0,0,1,1.689-.635,6.621,6.621,0,0,1,1.3.068q.1.02.1.215a.677.677,0,0,1-.2.381q-5.5,6.3-6.543,8.2-.361.654-1.66.654a2.078,2.078,0,0,1-.9-.225,3.839,3.839,0,0,1-.684-1.309A7.287,7.287,0,0,1,.723-5.312q0-.42.6-.693A3.461,3.461,0,0,1,2.568-6.387Z" transform="translate(-0.723 10.635)" fill="#3c763d"/>
</svg>
