<?xml version="1.0" encoding="utf-8"?>
<svg version="1.2" baseProfile="tiny" xmlns="http://www.w3.org/2000/svg" xmlns:xlink="http://www.w3.org/1999/xlink"
	 x="0px" y="0px" width="21px" height="15px" viewBox="0 0 21 15" overflow="visible" xml:space="preserve">
<path fill="none" stroke="#80B40F" d="M2,0.5h17c0.8,0,1.5,0.7,1.5,1.5v11c0,0.8-0.7,1.5-1.5,1.5H2c-0.8,0-1.5-0.7-1.5-1.5V2
	C0.5,1.2,1.2,0.5,2,0.5z"/>
<path fill="#80B429" d="M7.6,4.7C7,4.7,6.4,4.9,6,5.4C5.5,6,5.3,6.6,5.3,7.3c0,0.7,0.2,1.4,0.6,1.9
	C6.4,9.8,7,10,7.6,10c0.5,0,1-0.1,1.5-0.2v0.7c-0.5,0.2-1.1,0.3-1.6,0.2c-0.8,0.1-1.6-0.3-2.2-0.9C4.8,9.1,4.5,8.2,4.5,7.3
	c0-0.6,0.1-1.2,0.4-1.7C5.2,5.1,5.5,4.7,6,4.4C6.5,4.2,7.1,4,7.6,4c0.6,0,1.2,0.1,1.8,0.4L9.1,5.1C8.6,4.8,8.1,4.7,7.6,4.7z
	 M10.6,10.6V4.1h0.7v5.7h2.8v0.7H10.6z M15.2,10.6V4.1H16v6.4H15.2z"/>
</svg>
