<?xml version="1.0" encoding="utf-8"?>
<svg version="1.2" baseProfile="tiny" xmlns="http://www.w3.org/2000/svg" xmlns:xlink="http://www.w3.org/1999/xlink"
	 x="0px" y="0px" width="21px" height="15px" viewBox="0 0 21 15" overflow="visible" xml:space="preserve">
<path fill="none" stroke="#FF0000" d="M2,0.5h17c0.8,0,1.5,0.7,1.5,1.5v11c0,0.8-0.7,1.5-1.5,1.5H2c-0.8,0-1.5-0.7-1.5-1.5V2
	C0.5,1.2,1.2,0.5,2,0.5z"/>
<path fill="#FF0D19" d="M8.4,10.6l-0.8-2H5l-0.8,2H3.5L6,4.1h0.6l2.5,6.5H8.4z M7.4,7.8l-0.7-2
	C6.5,5.6,6.4,5.3,6.3,4.9C6.3,5.2,6.2,5.5,6.1,5.8l-0.8,2H7.4z M14.2,6c0,0.6-0.2,1.1-0.7,1.5c-0.6,0.4-1.2,0.6-1.9,0.5h-0.8v2.5
	h-0.7V4.1h1.7C13.3,4.1,14.2,4.8,14.2,6z M10.8,7.4h0.7c0.5,0,1-0.1,1.4-0.3c0.3-0.2,0.5-0.6,0.4-1c0-0.4-0.1-0.7-0.4-0.9
	c-0.4-0.2-0.8-0.3-1.3-0.3h-0.8V7.4z M15.5,10.6V4.1h0.7v6.4H15.5z"/>
</svg>
