<?xml version="1.0" encoding="utf-8"?>
<svg version="1.2" baseProfile="tiny" xmlns="http://www.w3.org/2000/svg" xmlns:xlink="http://www.w3.org/1999/xlink"
	 x="0px" y="0px" width="18px" height="15px" viewBox="0 0 18 15" overflow="visible" xml:space="preserve">
<path fill="#047BF9" d="M8.2,10.4c-0.5,0.2-1.1,0.3-1.6,0.3c-0.8,0-1.5-0.2-2.1-0.8C4,9.3,3.8,8.4,3.8,7.6c0-0.5,0.1-0.9,0.2-1.4
	c0.1-0.4,0.3-0.7,0.6-1c0.2-0.3,0.6-0.5,0.9-0.7c0.4-0.2,0.8-0.2,1.2-0.2c0.3,0,0.6,0,0.8,0.1c0.3,0,0.5,0.1,0.7,0.2v0.9
	C8,5.3,7.8,5.2,7.5,5.1C7.3,5,7,5,6.7,5C6.4,5,6.2,5.1,5.9,5.2C5.7,5.3,5.5,5.5,5.3,5.7C5.1,5.9,5,6.2,4.9,6.4
	c-0.1,0.3-0.1,0.7-0.1,1c0,0.7,0.1,1.3,0.5,1.9C5.6,9.8,6.2,10,6.7,10c0.3,0,0.5,0,0.8-0.1C7.8,9.8,8,9.7,8.2,9.6L8.2,10.4z
	 M13.9,8.9h-1.1l-0.2,1.8h-0.7l0.2-1.8h-1.2l-0.2,1.8H9.9l0.2-1.8h-1V8.3h1.1l0.2-1.7h-1V5.9h1.1l0.2-1.6h0.7l-0.2,1.6h1.2l0.2-1.6
	h0.7l-0.2,1.6h1v0.6H13l-0.2,1.7h1L13.9,8.9z M12.2,8.3l0.2-1.7h-1.2l-0.2,1.7H12.2z"/>
<path fill="none" d="M1,0h16c0.6,0,1,0.4,1,1v13c0,0.6-0.4,1-1,1H1c-0.6,0-1-0.4-1-1V1C0,0.4,0.4,0,1,0z"/>
<path fill="none" stroke="#007BFF" d="M1,0.5h16c0.3,0,0.5,0.2,0.5,0.5v13c0,0.3-0.2,0.5-0.5,0.5H1c-0.3,0-0.5-0.2-0.5-0.5V1
	C0.5,0.7,0.7,0.5,1,0.5z"/>
</svg>
