<?xml version="1.0" encoding="utf-8"?>
<svg version="1.2" baseProfile="tiny" xmlns="http://www.w3.org/2000/svg" xmlns:xlink="http://www.w3.org/1999/xlink"
	 x="0px" y="0px" width="18px" height="15px" viewBox="0 0 18 15" overflow="visible" xml:space="preserve">
<path fill="none" stroke="#FF9500" d="M2,0.5h14c0.8,0,1.5,0.7,1.5,1.5v11c0,0.8-0.7,1.5-1.5,1.5H2c-0.8,0-1.5-0.7-1.5-1.5V2
	C0.5,1.2,1.2,0.5,2,0.5z"/>
<path fill="#FF9529" d="M5.9,12.2c-0.2,0-0.4,0-0.6-0.1v-0.6c0.2,0.1,0.4,0.1,0.6,0.1c0.2,0,0.5-0.1,0.7-0.3
	c0.2-0.2,0.2-0.5,0.2-0.8V4.1h0.7v6.4c0,0.5-0.1,0.9-0.4,1.3C6.8,12.1,6.4,12.3,5.9,12.2z M12.9,8.8c0,0.5-0.2,1-0.6,1.3
	c-0.5,0.3-1.1,0.5-1.7,0.5c-0.6,0-1.2-0.1-1.8-0.3V9.6c0.3,0.1,0.6,0.2,0.9,0.3C10,10,10.3,10,10.7,10c0.4,0,0.8-0.1,1.1-0.3
	c0.2-0.2,0.4-0.5,0.4-0.8c0-0.2,0-0.4-0.1-0.5c-0.1-0.2-0.3-0.3-0.4-0.4c-0.3-0.2-0.6-0.3-1-0.4c-0.5-0.1-0.9-0.4-1.3-0.8
	C9.1,6.5,8.9,6.1,9,5.7c0-0.5,0.2-0.9,0.6-1.2C9.9,4.2,10.5,4,11,4c0.6,0,1.2,0.1,1.8,0.4L12.5,5c-0.5-0.2-1-0.3-1.5-0.3
	c-0.3,0-0.7,0.1-0.9,0.3C9.8,5.1,9.7,5.4,9.7,5.7c0,0.2,0,0.4,0.1,0.5c0.1,0.2,0.2,0.3,0.4,0.4c0.3,0.2,0.6,0.3,0.9,0.4
	c0.5,0.1,1,0.4,1.4,0.8C12.8,8.1,12.9,8.5,12.9,8.8L12.9,8.8z"/>
</svg>
