<svg xmlns="http://www.w3.org/2000/svg" xmlns:xlink="http://www.w3.org/1999/xlink" width="16" height="16" viewBox="0 0 16 16">
  <defs>
    <clipPath id="clip-path">
      <rect width="16" height="16" fill="none"/>
    </clipPath>
  </defs>
  <g id="icon_phone_16" transform="translate(0 0)" clip-path="url(#clip-path)">
    <g id="Group_5221" data-name="Group 5221" transform="translate(-1080.833 399.75)">
      <g id="Group_5220" data-name="Group 5220">
        <path id="Path_5304" data-name="Path 5304" d="M1096.239-387.7c1.452,1.172-.134,2.631-.777,3.394-.486.574-1.1,1.255-5.379-1.1a21.563,21.563,0,0,1-4.232-3.18h-.005c-.028-.031-.151-.155-.18-.186v0a21.64,21.64,0,0,1-3.18-4.236c-2.353-4.286-1.673-4.9-1.1-5.382.763-.651,2.183-2.2,3.393-.779,2.017,2.371,2.215,3.491,1.473,4.069a4.515,4.515,0,0,0-.62.654c-.785.784-.6,2.134,1.272,4l.328.391c1.391,1.391,3.228,2.14,4.012,1.354.255-.256.354-.51.7-.863C1092.636-390.247,1093.366-390.017,1096.239-387.7Z" fill="#0b2e4e"/>
      </g>
    </g>
    <rect id="Rectangle_5806" data-name="Rectangle 5806" width="16" height="16" fill="none"/>
  </g>
</svg>