<svg xmlns="http://www.w3.org/2000/svg" width="20.29" height="19.545" viewBox="0 0 20.29 19.545"><path d="M816.691,144.287c-.26.311-.354,1.168.181,2.683a12.338,12.338,0,0,0,.505,1.21,12.346,12.346,0,0,0,.061-1.31C817.422,145.264,817.041,144.49,816.691,144.287Zm2.154,9.29q-.341-.407-.661-.82-.159.5-.34,1t-.38.982q.51-.111,1.033-.2t1.041-.162Q819.186,153.985,818.845,153.578Zm6.361,2.55a12.358,12.358,0,0,0-1.3-.167,12.343,12.343,0,0,0,1.1.708c1.4.79,2.26.846,2.611.644C827.48,156.932,826.785,156.422,825.206,156.127Zm3.6,2.5c-.725.6-2.122,1.014-4.664-.421a16.982,16.982,0,0,1-3.009-2.23c-.756.057-1.539.155-2.332.3s-1.562.315-2.292.52a16.985,16.985,0,0,1-2.065,3.125c-1.417,1.656-2.586,2.126-3.456,2.126a2.306,2.306,0,0,1-.793-.139l-.039-.015a1.682,1.682,0,0,1-1-1.2l-.006-.032c-.164-.929.171-2.35,2.7-3.84a16.985,16.985,0,0,1,3.436-1.491c.329-.683.635-1.41.91-2.167s.508-1.51.7-2.245a16.99,16.99,0,0,1-1.674-3.351c-.969-2.744-.328-4.049.388-4.661a1.574,1.574,0,0,1,1.639-.289c.883.33,1.931,1.336,1.959,4.247a16.987,16.987,0,0,1-.427,3.721c.427.626.9,1.255,1.422,1.872s1.054,1.2,1.6,1.725a16.982,16.982,0,0,1,3.739.226c2.87.535,3.675,1.747,3.844,2.675A1.587,1.587,0,0,1,828.808,158.623Zm-16.069-.3c-1.383.817-1.862,1.534-1.863,1.939.4.07,1.189-.278,2.233-1.5a12.348,12.348,0,0,0,.8-1.043A12.362,12.362,0,0,0,812.738,158.326Z" transform="translate(-809.114 -142.492)" fill="#030210"/></svg>