<?xml version="1.0" encoding="UTF-8"?>
<!-- Generator: Adobe Illustrator 22.1.0, SVG Export Plug-In . SVG Version: 6.00 Build 0)  -->
<svg version="1.2" baseProfile="tiny" id="Owler-icon" xmlns="http://www.w3.org/2000/svg" xmlns:xlink="http://www.w3.org/1999/xlink" x="0px" y="0px" viewBox="0 0 32 32" xml:space="preserve">
<circle fill="#FE9D48" cx="16" cy="16" r="16"/>
<path fill="#FFFFFF" d="M27.7,12.6c-0.2-0.1-0.3-0.1-0.4-0.1c-0.5,0-1,0.1-1.5,0.2c-1.4,0.3-2.7,0.7-4,1.4c0,0-0.1,0.1-0.1,0  c0-1.9-0.1-3.8-0.3-5.7c-0.3,0.5-0.7,0.8-1.2,1c-0.4,0.2-0.9,0.3-1.3,0.3c-1,0.2-2,0.3-3.1,0.3c-1,0-1.9-0.1-2.9-0.3  c-0.6-0.2-1.2-0.3-1.7-0.7c-0.2-0.2-0.4-0.3-0.5-0.5c-0.1,2-0.2,3.9-0.3,5.9c-0.2-0.1-0.3-0.2-0.5-0.3c-1.4-0.7-2.9-1.1-4.5-1.3  c-0.3-0.1-0.6-0.1-1,0c-0.3,0.1-0.3,0.2-0.2,0.4c0.5,0.6,1,1.2,1.6,1.8C6,15.1,6,15.2,6,15.3c-0.2,0.3-0.1,0.3,0.1,0.5  c0.1,0.1,0.2,0.2,0.3,0.3c1,0.9,2.3,1.5,3.7,1.7c0.6,0.2,0.5,0.2,0.6,0.6c0.1,1,0.3,1.8,0.5,2.7c0.3,0.8,0.9,1.5,1.6,2  c1.6,1,3.1,1.3,4.9,0.9c0.9-0.2,1.7-0.5,2.3-1c0.7-0.6,1.1-1.4,1.3-2.3c0.3-0.8,0.3-1.7,0.4-2.5l0,0c0-0.2,0.1-0.3,0.3-0.3  c0.3-0.1,0.6-0.2,0.9-0.3c1.3-0.4,2.4-1,3.3-1.9c0.2-0.2,0.2-0.3,0.1-0.5c-0.1-0.1,0-0.2,0-0.3c0.3-0.3,0.5-0.5,0.7-0.8  c0.3-0.3,0.7-0.8,1-1.1C27.9,12.8,27.8,12.7,27.7,12.6z"/>
</svg>