<svg xmlns="http://www.w3.org/2000/svg" xmlns:xlink="http://www.w3.org/1999/xlink" viewBox="0 0 32 32">
  <defs>
    <clipPath id="clip-path">
      <rect width="32" height="32" fill="none"/>
    </clipPath>
  </defs>
  <g id="icon_social_tw" clip-path="url(#clip-path)">
    <circle id="Ellipse_353" data-name="Ellipse 353" cx="16" cy="16" r="16" fill="#02b3e9"/>
    <path id="twitter_1_" d="M188.025,10.842a6.3,6.3,0,0,1-1.768.485,3.071,3.071,0,0,0,1.352-1.706,6.188,6.188,0,0,1-1.956.749,3.081,3.081,0,0,0-5.326,2.108,2.892,2.892,0,0,0,.083.7,8.758,8.758,0,0,1-6.353-3.218,3.083,3.083,0,0,0,.957,4.112,2.977,2.977,0,0,1-1.394-.388v.042a3.087,3.087,0,0,0,2.469,3.024,3.139,3.139,0,0,1-.811.111,3.252,3.252,0,0,1-.583-.055,3.092,3.092,0,0,0,2.878,2.143,6.194,6.194,0,0,1-3.828,1.318,6.44,6.44,0,0,1-.735-.042A8.759,8.759,0,0,0,186.5,12.847c0-.132,0-.264-.007-.4A6.626,6.626,0,0,0,188.025,10.842Z" transform="translate(-164.024 1.39)" fill="#fff"/>
  </g>
</svg>