<svg xmlns="http://www.w3.org/2000/svg" width="48" height="48" viewBox="0 0 48 48">
  <g id="a3f4a18d-506d-4527-adca-93bec409492d" data-name="Layer 2">
    <g id="a985e983-00c3-4211-9378-6399c7e405c9" data-name="Layer 1">
      <g id="aada7d7c-e4dd-40fc-b01e-a8aa2c616c5d" data-name="Group 8436">
        <rect id="ea4ecd40-fb68-4d16-a126-25dea6c5e8eb" data-name="Rectangle 7353-9" width="48" height="48" style="fill: #ef4524"/>
      </g>
      <g id="ed0e98c3-1a1e-4638-b63a-c1ea81c9e572" data-name="Group 8452">
        <path id="f52ac85a-0595-4f89-af2e-cd1599f5b35f" data-name="Path 7705" d="M32.8,26.8h3.7V21.4H32.8a5.09,5.09,0,0,0-1.1-2.2l2.7-2.7-3.1-3.1-2.5,2.7c-.8-.5-2.1-.8-2.1-1.1V11.5H21.3V15a5.09,5.09,0,0,0-2.2,1.1l-2.7-2.7-3,3.1,2.7,2.7A4.23,4.23,0,0,0,15,21.3H11.5v5.4H15c.2,0,.6,1.3,1.1,2.1l-2.7,2.6,3.1,3.1,2.6-2.7a5,5,0,0,0,2.2,1v3.7h5.4V32.8c0-.2,1.3-.6,2.1-1.1l2.6,2.7,3-3.1-2.7-2.5C32.2,28,32.6,26.8,32.8,26.8Zm-8.8.7A3.5,3.5,0,1,1,27.5,24,3.54,3.54,0,0,1,24,27.5Z" style="fill: #fff"/>
      </g>
    </g>
  </g>
</svg>
