<svg xmlns="http://www.w3.org/2000/svg" width="48" height="48" viewBox="0 0 48 48">
  <g id="bfbaa461-1ea5-4237-bb8e-a6263dee3665" data-name="Layer 2">
    <g id="ec72a538-9eb1-4247-9574-e6f9d478eebb" data-name="Layer 1">
      <g id="aaec9217-a29f-4f55-8814-b7e4035ec83a" data-name="Group 8442">
        <rect id="a4bedcfc-71f1-440f-9389-3840b14797b5" data-name="Rectangle 7353-12" width="48" height="48" style="fill: #ef4524"/>
      </g>
      <g id="f342a434-8c71-4a8f-bc07-ff7bf23b9e9a" data-name="Group 8448">
        <path id="bd6cd0ee-af4e-41f9-ad5c-54df5351d587" data-name="Path 7693" d="M15.8,29a4.49,4.49,0,0,0-2,.5,3.84,3.84,0,0,0-1.5.9,3,3,0,0,0-.8.8,3.47,3.47,0,0,0-.7,1,3.77,3.77,0,0,0-.5,1.1A4.69,4.69,0,0,0,10,35H22.5a6,6,0,0,0-1.1-3.4,6.86,6.86,0,0,0-.8-.9,6.11,6.11,0,0,0-4-1.7h-.8" style="fill: #fff"/>
        <path id="b268c8ab-dd5e-4fa1-95a2-7ca171d86441" data-name="Path 7695" d="M31,17v3h4v1H31v2h4v1H31v2h4v1H31v2h4v1H31v5h7V17Z" style="fill: #fff"/>
        <path id="a929420b-b242-4250-8cfa-7a6c6f17116e" data-name="Path 7696" d="M15,13v7a8.61,8.61,0,0,1,3.2,0,4.22,4.22,0,0,1,2,1H21v.9a4.3,4.3,0,0,1,.8,2.5,4.83,4.83,0,0,1-1.3,3.2,3.47,3.47,0,0,1-1,.7l1.5.6a6.62,6.62,0,0,1,1.3,1c.3.3.6.7.9,1a7,7,0,0,1,1.2,3.9H30V13H15m6,5H18V17h3v1m6,12H24V29h3v1m0-4H24V25h3v1m0-4H24V21h3v1m0-4H24V17h3v1" style="fill: #fff"/>
        <circle id="a092ecdd-3cfb-42ab-9a04-584e7923fb68" data-name="Ellipse 1593" cx="16.5" cy="24.5" r="3.5" style="fill: #fff"/>
      </g>
    </g>
  </g>
</svg>
