<svg xmlns="http://www.w3.org/2000/svg" width="48" height="48" viewBox="0 0 48 48">
  <g id="b00a81e9-518e-4431-b34c-e961f5ec06b4" data-name="Layer 2">
    <g id="ec088bc9-217c-4034-8383-37237873bc6a" data-name="Layer 1">
      <g id="a96ba0a2-7c1d-4f99-a53d-cb67d52f2744" data-name="Group 8440">
        <rect id="b86203fa-0b38-42cb-91ad-92dec4a6a423" data-name="Rectangle 7353-11" width="48" height="48" style="fill: #ef4524"/>
      </g>
      <path id="fee976e1-3dd6-4274-a6f1-6a509e7152f2" data-name="Path 7708" d="M31.94,21.54l.27.27.12.12.16.13a.82.82,0,0,0,.49.13.9.9,0,0,0,.64-.26l.11-.11c1.87,2.52,1.75,4.27,2.14,4.27.17,0,.46-.39,1.11-1.24a5.77,5.77,0,0,0,.32-6.6l.2-.2a.91.91,0,0,0,0-1.28L33.62,12.9a.91.91,0,0,0-1.29,0h0l-.34.34L30.9,12.16l.34-.34h0a.9.9,0,0,0,0-1.28l-.17-.18a.92.92,0,0,0-1.29,0l-3.87,3.87v0a.9.9,0,0,0,0,1.27l.17.17a.89.89,0,0,0,.65.27,1,1,0,0,0,.65-.27l.34-.34,1.08,1.09-.34.34a.91.91,0,0,0-.25.8.82.82,0,0,0,.16.37l.09.12.17.16-4,4-.45.45L21,19.4a5.77,5.77,0,0,0-1.3-6.15,2.89,2.89,0,0,0-.32-.29,5.79,5.79,0,0,0-5.91-1,.62.62,0,0,0-.34.79.72.72,0,0,0,.14.2l3.12,3.12L16,17.75l-1.68.36L11.21,15a.69.69,0,0,0-.2-.13.6.6,0,0,0-.79.33A5.78,5.78,0,0,0,11.17,21a4,4,0,0,0,.34.38,5.77,5.77,0,0,0,6.15,1.31L20.9,26l-8.34,8.34a1,1,0,0,0,0,1.42l1.9,1.91a1,1,0,0,0,1.42,0l8.35-8.36,8.4,8.36a1,1,0,0,0,1.42,0L36,35.71a1,1,0,0,0,0-1.42l-8.4-8.35.6-.6Z" style="fill: #fff"/>
    </g>
  </g>
</svg>
