<svg xmlns="http://www.w3.org/2000/svg" width="48" height="48" viewBox="0 0 48 48">
  <g id="ba4c4ba2-281d-40f3-bf95-09b4c50d9f91" data-name="Layer 2">
    <g id="b905f388-d6b5-414c-82d6-a4da2bfe096d" data-name="Layer 1">
      <g id="a1a5aea2-4a6e-4564-969b-669a7bb2c4a2" data-name="Group 8444">
        <rect id="a95b3845-78ea-47e5-839b-67a90ae3fe0f" data-name="Rectangle 7353-13" width="48" height="48" style="fill: #ef4524"/>
      </g>
      <g id="b889fcb1-0601-4ce0-962f-742d89da4094" data-name="Group 8455">
        <g id="a1d17768-dbf3-4fd5-9709-fa7401a163d5" data-name="Group 8454">
          <path id="e2640c77-51da-49d4-a627-4d9fbababfb6" data-name="Path 7710" d="M30.26,28.62h0a2,2,0,0,1-2-1.95V23.43a2,2,0,0,1,2-1.95h5.18V18.25a1.5,1.5,0,0,0-1.5-1.5H15.27a1.5,1.5,0,0,0-1.5,1.5v13.6a1.5,1.5,0,0,0,1.5,1.5H33.94a1.5,1.5,0,0,0,1.5-1.5V28.62H30.26Z" style="fill: #fff"/>
          <path id="bf93fbba-2fe6-4480-b4f8-3e70f9afa583" data-name="Path 7711" d="M35.35,22.55H30.26a.88.88,0,0,0-.88.88v3.24a.88.88,0,0,0,.88.88h5.09a.87.87,0,0,0,.88-.88V23.43A.87.87,0,0,0,35.35,22.55ZM32,26.32a1.28,1.28,0,1,1,1.27-1.27h0A1.27,1.27,0,0,1,32,26.32Z" style="fill: #fff"/>
          <path id="a733233c-aade-4b12-91fb-a3caaf935078" data-name="Path 7712" d="M31.31,14a1.93,1.93,0,0,0-2.45-1.23l-7.65,2.52H31.74Z" style="fill: #fff"/>
        </g>
      </g>
    </g>
  </g>
</svg>
