<svg xmlns="http://www.w3.org/2000/svg" width="48" height="48" viewBox="0 0 48 48">
  <g id="b6d50aa5-10fe-452e-ae94-3d247d72122f" data-name="Layer 2">
    <g id="ff4f5cbe-c421-47c9-832f-b0df4839c549" data-name="Layer 1">
      <g id="e9446aa7-fa14-4655-b57e-5103ad7d4c66" data-name="Group 8422">
        <rect id="be5aa1cc-9f04-4b17-85b0-b0d825b8562c" data-name="Rectangle 7353" width="48" height="48" style="fill: #ef4524"/>
        <path id="b24537dd-2528-4e16-8a31-30309c4296ac" data-name="Path 7687" d="M25,35C18.41,35,13.43,30.74,13.43,25c0-4.78,3.28-11.86,12.45-11.86,7.87,0,9.46,4.39,9.46,8,0,3.09-2.49,7.47-4.88,7.47-1.59,0-1.79-1.39-1.79-2.19s1.69-4.78,3.19-8.47l-1.8-.8-.6,1.5c-.1-.2-.3-.4-.4-.6A5.11,5.11,0,0,0,25,16.49c-4.08,0-7.07,5.18-7.07,8.47a5.44,5.44,0,0,0,5.18,5.58,5.61,5.61,0,0,0,4.18-2,3.44,3.44,0,0,0,3.29,2c3.59,0,6.88-5.28,6.88-9.47,0-3-1.1-10-11.46-10-9.47,0-14.55,7.17-14.55,13.85,0,6.87,5.78,12,13.55,12,7.38,0,10.26-3.89,10.36-4.08l-1.59-1.2c-.1.2-2.49,3.28-8.77,3.28m-1.89-6.37a3.39,3.39,0,0,1-3.19-3.56v0c0-2.49,2.39-6.48,5.18-6.48a3.71,3.71,0,0,1,2.59.8,3.76,3.76,0,0,1,.5,3c-.4,1.1-.8,2.2-1,3-.6,1-2,3.29-4.08,3.29" style="fill: #fff"/>
      </g>
    </g>
  </g>
</svg>
