<svg xmlns="http://www.w3.org/2000/svg" width="48" height="48" viewBox="0 0 48 48">
  <g id="b071535a-658f-4ac0-8c64-b3adbc2bd495" data-name="Layer 2">
    <g id="aca71658-9e2d-4616-8ed1-11355a9b8303" data-name="Layer 1">
      <g id="bf86dc84-b0f1-45d1-8026-2413486b1949" data-name="Group 8426">
        <rect id="a2a99a77-9208-42c3-ba45-7847a5baf299" data-name="Rectangle 7353-4" width="48" height="48" style="fill: #ef4524"/>
      </g>
      <g id="bbde8f99-2381-430b-a479-14826078a1f7" data-name="Group 8453">
        <path id="ac4d81f5-501a-4aab-abb9-bfd0f6b72df5" data-name="Path 7709" d="M30.88,7.65H17.12A2.37,2.37,0,0,0,14.74,10h0V38a2.37,2.37,0,0,0,2.38,2.37H30.88A2.37,2.37,0,0,0,33.26,38V10A2.37,2.37,0,0,0,30.88,7.65ZM20.6,9.09h6.8c.17,0,.31.26.31.58s-.14.57-.31.57H20.6c-.17,0-.31-.26-.31-.57S20.43,9.09,20.6,9.09ZM24,38a1.52,1.52,0,1,1,1.52-1.52h0A1.52,1.52,0,0,1,24,38Zm7.48-5.2h-15V11.67h15V32.8Z" style="fill: #fff"/>
      </g>
    </g>
  </g>
</svg>
