<svg xmlns="http://www.w3.org/2000/svg" width="48" height="48" viewBox="0 0 48 48">
  <g id="e04ecc20-ee1f-462c-abfe-2dce107d194b" data-name="Layer 2">
    <g id="a8020a1c-6cdb-44ce-a028-3fd2ac087368" data-name="Layer 1">
      <g id="ad48f211-4333-47bf-a871-3b7f778ac63f" data-name="Group 8458">
        <rect id="b68bc6bf-0dfe-49b7-957f-3bdb82e6828f" data-name="Rectangle 7353-16" width="48" height="48" style="fill: #ef4524"/>
      </g>
      <g id="e38e5cbf-7b02-444f-b849-c62a4f09e80c" data-name="Group 8491">
        <g id="b8ba6bea-69e0-466e-b277-9c9c2a51e343" data-name="Group 8460">
          <g id="e765a48e-eb17-4cbd-878a-57731272fc07" data-name="Group 8459">
            <path id="b083d8e9-6c10-4165-852b-a44cadde298b" data-name="Path 7716" d="M21.72,11.32a28.49,28.49,0,0,0-2.22,6.07,20.58,20.58,0,0,0,3.75.48V11.14A13,13,0,0,0,21.72,11.32Z" style="fill: #fff"/>
          </g>
        </g>
        <g id="a55ccdf7-0604-43c4-941e-0d4afd19c237" data-name="Group 8462">
          <g id="aa8b1a0a-141f-46a3-ace6-0de3514bac40" data-name="Group 8461">
            <path id="b9ce4368-b980-4720-a9e9-05f411b26805" data-name="Path 7717" d="M28.81,18.87a22.1,22.1,0,0,1-4.06.51v3.87h4.52A27.93,27.93,0,0,0,28.81,18.87Z" style="fill: #fff"/>
          </g>
        </g>
        <g id="a4e73758-4b02-4529-90f4-ea41b24b258a" data-name="Group 8464">
          <g id="fdb0d402-3956-4e72-abf0-3703a0d11072" data-name="Group 8463">
            <path id="bef9c19f-a8e1-47d7-a5b7-cd048c69ec31" data-name="Path 7718" d="M26.28,11.32a13.29,13.29,0,0,0-1.53-.18v6.73a19.74,19.74,0,0,0,3.75-.48A28.49,28.49,0,0,0,26.28,11.32Z" style="fill: #fff"/>
          </g>
        </g>
        <g id="a6ac0bca-a80c-4dcd-8e0f-6d5c65a4386d" data-name="Group 8466">
          <g id="e5aa4de8-379d-4043-8a36-8f62f54e5f71" data-name="Group 8465">
            <path id="eaa42e45-703c-4ca3-9796-722bb9c24da0" data-name="Path 7719" d="M24.75,30.13v6.73a13.29,13.29,0,0,0,1.53-.18,28,28,0,0,0,2.22-6.07A19.64,19.64,0,0,0,24.75,30.13Z" style="fill: #fff"/>
          </g>
        </g>
        <g id="a52662a8-4d46-424f-a373-56bfa24d4620" data-name="Group 8468">
          <g id="a4232fe8-203e-42a3-826a-e6a423764ec8" data-name="Group 8467">
            <path id="b2660462-07aa-4152-9c6c-4488a7086b6e" data-name="Path 7720" d="M30.78,24.75a30.38,30.38,0,0,1-.5,4.76,21.82,21.82,0,0,1,4.32,1.81,12.71,12.71,0,0,0,2.26-6.57Z" style="fill: #fff"/>
          </g>
        </g>
        <g id="b9bf9c1f-e7be-450a-a097-51d228091089" data-name="Group 8470">
          <g id="eed20809-5c3b-4ca2-9daa-782d61bb0c03" data-name="Group 8469">
            <path id="a8349077-f9a7-4944-9e02-508d7c2c1351" data-name="Path 7721" d="M19.5,30.61a28,28,0,0,0,2.22,6.07,13,13,0,0,0,1.53.18V30.13A19.64,19.64,0,0,0,19.5,30.61Z" style="fill: #fff"/>
          </g>
        </g>
        <g id="eaa81798-2747-4494-8957-b9bd4ad81604" data-name="Group 8472">
          <g id="bf84582a-978e-46ea-98cd-137fcbdc3168" data-name="Group 8471">
            <path id="fb1efe41-cf3d-4ec1-9003-fb25e6c0ae74" data-name="Path 7722" d="M19.19,18.87a27.93,27.93,0,0,0-.46,4.37h4.52V19.38A22.1,22.1,0,0,1,19.19,18.87Z" style="fill: #fff"/>
          </g>
        </g>
        <g id="e5e6495f-962d-4289-82c4-3a0832358dd5" data-name="Group 8474">
          <g id="aed7c3ac-ceb7-4e3d-bf59-cbd1203186b9" data-name="Group 8473">
            <path id="b79108cd-cdcc-4faa-8c49-bf19a1957b58" data-name="Path 7723" d="M13.4,16.68a12.71,12.71,0,0,0-2.26,6.56h6.08a30.38,30.38,0,0,1,.5-4.75A21.82,21.82,0,0,1,13.4,16.68Z" style="fill: #fff"/>
          </g>
        </g>
        <g id="a46784b1-9bb8-4f9f-9a30-e8862820abf9" data-name="Group 8476">
          <g id="b2c5e904-162a-4977-98a2-b07e9f2f964b" data-name="Group 8475">
            <path id="ea6b9e17-5e28-4f5b-a7dc-56fa6d52db89" data-name="Path 7724" d="M18,31a20.6,20.6,0,0,0-3.7,1.53,12.84,12.84,0,0,0,5.47,3.67A29.79,29.79,0,0,1,18,31Z" style="fill: #fff"/>
          </g>
        </g>
        <g id="f705723c-0b32-43aa-8e15-283c2e302991" data-name="Group 8478">
          <g id="a8320a9d-02ca-441b-99a6-af0e4c88c6d7" data-name="Group 8477">
            <path id="b8f0c8f1-52fe-4ae2-a723-37bd6db80f51" data-name="Path 7725" d="M14.34,15.48A20.6,20.6,0,0,0,18,17a29.54,29.54,0,0,1,1.78-5.2A12.93,12.93,0,0,0,14.34,15.48Z" style="fill: #fff"/>
          </g>
        </g>
        <g id="e28b3e04-d3fb-46a8-a480-063de38a803c" data-name="Group 8480">
          <g id="a1beff7d-2ca9-4d9b-8e3d-459905eafd93" data-name="Group 8479">
            <path id="f4d871b1-4bad-4ad9-b527-80fc40bf685d" data-name="Path 7726" d="M17.22,24.75H11.14a12.71,12.71,0,0,0,2.26,6.57,21.82,21.82,0,0,1,4.32-1.81A30.38,30.38,0,0,1,17.22,24.75Z" style="fill: #fff"/>
          </g>
        </g>
        <g id="bc64d92c-9de1-4264-9e4a-a7941f0a2b1b" data-name="Group 8482">
          <g id="e5b7a57c-bfdb-479a-bff1-7d86f715c985" data-name="Group 8481">
            <path id="b8523a4b-b851-4acc-b685-3047b6f283d0" data-name="Path 7727" d="M28.18,11.81A30.11,30.11,0,0,1,30,17a19.9,19.9,0,0,0,3.7-1.53A12.93,12.93,0,0,0,28.18,11.81Z" style="fill: #fff"/>
          </g>
        </g>
        <g id="a0b61166-0824-4754-b549-d4ef00c074bf" data-name="Group 8484">
          <g id="a9beb907-33aa-4838-8171-82f25fc2b1b4" data-name="Group 8483">
            <path id="fc065a1a-6dc1-4189-b2f8-32c5a664bce3" data-name="Path 7728" d="M30,31a29,29,0,0,1-1.78,5.2,12.87,12.87,0,0,0,5.48-3.67A20.6,20.6,0,0,0,30,31Z" style="fill: #fff"/>
          </g>
        </g>
        <g id="b856281c-b977-4c69-866b-7a61bca67bf9" data-name="Group 8486">
          <g id="bda29a7a-ab6b-40ca-82a6-c2ec45ba6a4e" data-name="Group 8485">
            <path id="b94a14ae-28e7-42ec-8bc2-09d61667c5cf" data-name="Path 7729" d="M18.73,24.75a27.93,27.93,0,0,0,.46,4.38,21.27,21.27,0,0,1,4.06-.51V24.75Z" style="fill: #fff"/>
          </g>
        </g>
        <g id="b647a401-8fd5-4c85-9f7c-ec8b8d7db1ef" data-name="Group 8488">
          <g id="edeeafce-e2d3-452c-8284-3e76c43925b0" data-name="Group 8487">
            <path id="e9dbc6c8-1579-4728-b01d-4ea660d27d00" data-name="Path 7730" d="M34.6,16.68a21.82,21.82,0,0,1-4.32,1.81,30.38,30.38,0,0,1,.5,4.75h6.07A12.79,12.79,0,0,0,34.6,16.68Z" style="fill: #fff"/>
          </g>
        </g>
        <g id="b1cb59e7-a8b6-4b42-bd6e-8503d22f1cd8" data-name="Group 8490">
          <g id="a57f5c67-120a-4bc3-90c0-b9524f399081" data-name="Group 8489">
            <path id="b8b87f34-d888-4571-918d-363417d02813" data-name="Path 7731" d="M24.75,24.75v3.87a21.27,21.27,0,0,1,4.06.51,27.93,27.93,0,0,0,.46-4.38Z" style="fill: #fff"/>
          </g>
        </g>
      </g>
    </g>
  </g>
</svg>
