<svg xmlns="http://www.w3.org/2000/svg" width="48" height="48" viewBox="0 0 48 48">
  <g id="f9d0d8f6-f37d-4746-8120-f36c175f5bb8" data-name="Layer 2">
    <g id="f61b3a30-373a-4f1b-a7ab-30797b3251ab" data-name="Layer 1">
      <g id="be87e753-5acd-4ff5-8397-06782a1c20f8" data-name="Group 8428">
        <rect id="bda53b48-8964-42ed-85ab-db69cce80de2" data-name="Rectangle 7353-5" width="48" height="48" style="fill: #ef4524"/>
      </g>
      <path id="ed90bc5c-8c7e-487a-b639-975940dd6594" data-name="Path 7697" d="M37.78,30.25c2.95,2.37-.24,5.32-1.54,6.86-1,1.19-1.42,2.61-10.06-2.13a57.49,57.49,0,0,1-13-11.59c-5.92-8.52-4.14-9.82-3-10.89C11.75,11.08,14.59,8,17.07,11c4.14,4.73,4.38,6.74,3,8.28-.59.83-.83.83-1.18,1.42-1.54,1.54-2.73,2.13.94,5.91L21,27.77c2.72,2.72,5.08,2.36,6.74.82a11.6,11.6,0,0,0,1.42-1.77c1.42-1.66,3-1.07,8.64,3.43" style="fill: #fff"/>
    </g>
  </g>
</svg>
