<svg xmlns="http://www.w3.org/2000/svg" width="48" height="48" viewBox="0 0 48 48">
  <g id="a68b9492-3e01-4703-aa6f-60cd4625e539" data-name="Layer 2">
    <g id="e40bac17-1803-4605-8078-001a5c4f4b40" data-name="Layer 1">
      <g id="baf3d63f-553a-4a76-820c-ef2889c6538a" data-name="Group 8438">
        <rect id="f128a6a8-3aad-4b39-bc10-57b939edbe28" data-name="Rectangle 7353-10" width="48" height="48" style="fill: #ef4524"/>
      </g>
      <path d="M35,25.29V22H32.5V18a8.5,8.5,0,0,0-17,0v4H13v3.29h0V35.75h0V39H35V35.75h0V25.29ZM24,12.5A5.51,5.51,0,0,1,29.5,18v4h-11V18A5.51,5.51,0,0,1,24,12.5Zm1,19.72v2a1,1,0,0,1-1.92,0v-2a3.34,3.34,0,1,1,1.92,0Z" style="fill: #fff"/>
    </g>
  </g>
</svg>
