<svg xmlns="http://www.w3.org/2000/svg" width="20.891" height="20.039" viewBox="0 0 20.891 20.039">
  <g id="like" transform="translate(0 -10.433)">
    <g id="Group_3" data-name="Group 3" transform="translate(0 16.832)">
      <g id="Group_2" data-name="Group 2" transform="translate(0 0)">
        <path id="Path_3" data-name="Path 3" d="M3.41,167.256H.682a.683.683,0,0,0-.682.682v12.277a.682.682,0,0,0,.682.682H3.41a.682.682,0,0,0,.682-.682V167.938A.683.683,0,0,0,3.41,167.256Z" transform="translate(0 -167.256)" fill="#fff"/>
      </g>
    </g>
    <g id="Group_5" data-name="Group 5" transform="translate(5.456 10.433)">
      <g id="Group_4" data-name="Group 4" transform="translate(0 0)">
        <path id="Path_4" data-name="Path 4" d="M147.457,16.832c-.11-.019-5.253,0-5.253,0l.718-1.96c.5-1.354.175-3.42-1.2-4.155a2.358,2.358,0,0,0-1.578-.232,1.138,1.138,0,0,0-.7.521,2.832,2.832,0,0,0-.218.967,4.176,4.176,0,0,1-1.157,2.211c-1.059,1.033-4.348,4.012-4.348,4.012V29.109h11.367a2.065,2.065,0,0,0,1.783-3.05,2.065,2.065,0,0,0,.682-2.728,2.065,2.065,0,0,0,.682-2.728A2.081,2.081,0,0,0,147.457,16.832Z" transform="translate(-133.726 -10.433)" fill="#fff"/>
      </g>
    </g>
  </g>
</svg>
