<svg xmlns="http://www.w3.org/2000/svg" width="20.891" height="20.039" viewBox="0 0 20.891 20.039">
  <g id="like" transform="translate(0)">
    <g id="Group_3" data-name="Group 3" transform="translate(0 0)">
      <g id="Group_2" data-name="Group 2" transform="translate(0 0)">
        <path id="Path_3" data-name="Path 3" d="M3.41,180.9H.682A.683.683,0,0,1,0,180.214V167.938a.682.682,0,0,1,.682-.682H3.41a.682.682,0,0,1,.682.682v12.277A.683.683,0,0,1,3.41,180.9Z" transform="translate(0 -167.256)" fill="#fff"/>
      </g>
    </g>
    <g id="Group_5" data-name="Group 5" transform="translate(5.456 1.364)">
      <g id="Group_4" data-name="Group 4">
        <path id="Path_4" data-name="Path 4" d="M147.457,22.71c-.11.019-5.253,0-5.253,0l.718,1.96c.5,1.354.175,3.42-1.2,4.155a2.358,2.358,0,0,1-1.578.232,1.138,1.138,0,0,1-.7-.521,2.832,2.832,0,0,1-.218-.967,4.176,4.176,0,0,0-1.157-2.211c-1.059-1.033-4.348-4.012-4.348-4.012V10.433h11.367a2.065,2.065,0,0,1,1.783,3.05,2.065,2.065,0,0,1,.682,2.728,2.065,2.065,0,0,1,.682,2.728A2.081,2.081,0,0,1,147.457,22.71Z" transform="translate(-133.726 -10.433)" fill="#fff"/>
      </g>
    </g>
  </g>
</svg>
