<svg xmlns="http://www.w3.org/2000/svg" viewBox="0 0 28.77 14.38"><g id="abae674a-23c9-407c-b052-5142149aab14" data-name="Layer 2"><g id="f0b2f2d5-aa71-44e2-86c4-7aeb6a378faa" data-name="Layer 1"><path d="M15.41,0V4a10.36,10.36,0,0,1,5.8,2.54L24,3.72A14.29,14.29,0,0,0,15.41,0Z" style="fill:#dbdada"/><path d="M25.43,5.15,22.58,8a10.31,10.31,0,0,1,2.19,6.38h4A14.32,14.32,0,0,0,25.43,5.15Z" style="fill:#dbdada"/><path d="M13.36,0V4a10.36,10.36,0,0,0-5.8,2.54L4.73,3.72A14.29,14.29,0,0,1,13.36,0Z" style="fill:#feb000"/><path d="M3.34,5.15,6.19,8A10.31,10.31,0,0,0,4,14.38H0A14.32,14.32,0,0,1,3.34,5.15Z" style="fill:#dbdada"/></g></g></svg>